<?xml version="1.0" encoding="UTF-8" standalone="no"?>
<svg width="132px" height="28px" viewBox="0 0 132 28" version="1.1" xmlns="http://www.w3.org/2000/svg" xmlns:xlink="http://www.w3.org/1999/xlink">
    <!-- Generator: Sketch 50.2 (55047) - http://www.bohemiancoding.com/sketch -->
    <title>Logo</title>
    <desc>Created with Sketch.</desc>
    <defs>
        <path d="M5.43800202,0.0152718097 C5.12329573,0.0152718097 4.83855146,0.205954939 4.71319843,0.500623648 L0.0940883146,11.3584084 C-0.132538876,11.8911629 0.249949663,12.4864632 0.81889191,12.4864632 L1.9261,12.4864632 C2.2481182,12.4864632 2.53794719,12.286943 2.65867775,11.9821932 L3.41878022,10.0634791 L9.07328202,10.0634791 L9.83338449,11.9821932 C9.95411506,12.286943 10.243944,12.4864632 10.5659622,12.4864632 L11.7857485,12.4864632 C12.3526317,12.4864632 12.7351202,11.8950667 12.5124431,11.3628699 L7.96930966,0.505127974 C7.84500719,0.208014059 7.55908629,0.0152718097 7.24257303,0.0152718097 L5.43800202,0.0152718097 Z M6.26344944,2.95488068 L8.18320404,7.80084895 L4.32625551,7.80084895 L6.26344944,2.95488068 Z" id="path-1"></path>
        <linearGradient x1="13.2030831%" y1="16.7375565%" x2="68.8499043%" y2="115.743302%" id="linearGradient-3">
            <stop stop-color="#333333" offset="0%"></stop>
            <stop stop-color="#000000" offset="100%"></stop>
        </linearGradient>
        <path d="M0.81625506,0.0152718097 C0.371375492,0.0152718097 0.0107514704,0.376475847 0.0107514704,0.821932228 L0.0107514704,11.6797599 C0.0107514704,12.1252592 0.371375492,12.4864632 0.81625506,12.4864632 L5.18752022,12.4864632 C9.11896029,12.4864632 11.84071,9.9209708 11.84071,6.25088897 C11.84071,2.56296143 9.15455579,0.0152718097 5.2942639,0.0152718097 L0.81625506,0.0152718097 Z M2.82151138,2.38480461 L5.24084923,2.38480461 C7.3756372,2.38480461 8.97666394,3.97041312 8.97666394,6.26869178 C8.97666394,8.54916763 7.44674255,10.1168875 5.36541208,10.1168875 L2.82151138,10.1168875 L2.82151138,2.38480461 Z" id="path-4"></path>
        <linearGradient x1="8.92849753%" y1="-2.16426813%" x2="68.636619%" y2="96.0819054%" id="linearGradient-6">
            <stop stop-color="#333333" offset="0%"></stop>
            <stop stop-color="#000000" offset="100%"></stop>
        </linearGradient>
        <path d="M9.92957817,0.0152718097 C9.59451429,0.0152718097 9.29521541,0.227489906 9.18067416,0.546310382 L5.992461,9.42210598 L2.82128283,0.547554434 C2.70712295,0.228133381 2.40752745,0.0152718097 2.07195506,0.0152718097 L0.808484109,0.0152718097 C0.246795506,0.0152718097 -0.138568218,0.58775018 0.0667839486,1.11690123 L4.28035955,11.9747289 C4.40015538,12.2834683 4.69441156,12.4864632 5.02201734,12.4864632 L6.80666581,12.4864632 C7.1332122,12.4864632 7.42670562,12.2847123 7.54722183,11.9774744 L11.806775,1.11973252 C12.0145849,0.590109589 11.6290941,0.0152718097 11.0661766,0.0152718097 L9.92957817,0.0152718097 Z" id="path-7"></path>
        <linearGradient x1="29.5575834%" y1="-13.6883371%" x2="88.1168229%" y2="83.9006559%" id="linearGradient-9">
            <stop stop-color="#333333" offset="0%"></stop>
            <stop stop-color="#000000" offset="100%"></stop>
        </linearGradient>
        <path d="M0.833283077,0.0152718097 C0.392243132,0.0152718097 0.0346546552,0.376475847 0.0346546552,0.821932228 L0.0346546552,11.6797599 C0.0346546552,12.1252592 0.392243132,12.4864632 0.833283077,12.4864632 L8.83094897,12.4864632 C9.27198891,12.4864632 9.62953492,12.1252592 9.62953492,11.6797599 L9.62953492,10.9592394 C9.62953492,10.5136972 9.27198891,10.1525789 8.83094897,10.1525789 L2.82142405,10.1525789 L2.82142405,7.3910411 L7.98437311,7.3910411 C8.42541306,7.3910411 8.78295907,7.02992286 8.78295907,6.58442358 L8.78295907,5.86386013 C8.78295907,5.41836085 8.42541306,5.05719971 7.98437311,5.05719971 L2.82142405,5.05719971 L2.82142405,2.34915609 L8.63690838,2.34915609 C9.07794832,2.34915609 9.4355368,1.98799495 9.4355368,1.54253857 L9.4355368,0.821932228 C9.4355368,0.376475847 9.07794832,0.0152718097 8.63690838,0.0152718097 L0.833283077,0.0152718097 Z" id="path-10"></path>
        <linearGradient x1="10.4053358%" y1="-1.93582323%" x2="88.0785405%" y2="102.616225%" id="linearGradient-12">
            <stop stop-color="#333333" offset="0%"></stop>
            <stop stop-color="#000000" offset="100%"></stop>
        </linearGradient>
        <path d="M9.27176966,0.0152718097 C8.8341573,0.0152718097 8.47942416,0.376475847 8.47942416,0.821932228 L8.47942416,8.0324142 L2.7676264,0.335636626 C2.61783708,0.133885725 2.38382022,0.0152718097 2.13543539,0.0152718097 L0.802289326,0.0152718097 C0.364719101,0.0152718097 0.0100280899,0.376475847 0.0100280899,0.821932228 L0.0100280899,11.6797599 C0.0100280899,12.1252592 0.364719101,12.4864632 0.802289326,12.4864632 L1.86,12.4864632 C2.29757022,12.4864632 2.65234551,12.1252592 2.65234551,11.6797599 L2.65234551,4.48708075 L8.58442416,12.4864632 L10.3119522,12.4864632 C10.7495646,12.4864632 11.1042978,12.1252592 11.1042978,11.6797599 L11.1042978,0.821932228 C11.1042978,0.376475847 10.7495646,0.0152718097 10.3119522,0.0152718097 L9.27176966,0.0152718097 Z" id="path-13"></path>
        <linearGradient x1="14.9018236%" y1="-5.05972984%" x2="85.0979094%" y2="105.059594%" id="linearGradient-15">
            <stop stop-color="#333333" offset="0%"></stop>
            <stop stop-color="#000000" offset="100%"></stop>
        </linearGradient>
        <path d="M0.83571026,0.0152718097 C0.393793516,0.0152718097 0.0355711917,0.376475847 0.0355711917,0.821932228 L0.0355711917,1.59590411 C0.0355711917,2.04144629 0.393793516,2.40260743 0.83571026,2.40260743 L3.79947983,2.40260743 L3.79947983,11.6797599 C3.79947983,12.1252592 4.15770216,12.4864632 4.5996189,12.4864632 L5.79138147,12.4864632 C6.23329821,12.4864632 6.59147799,12.1252592 6.59147799,11.6797599 L6.59147799,2.40260743 L9.57294806,2.40260743 C10.0148648,2.40260743 10.3730871,2.04144629 10.3730871,1.59590411 L10.3730871,0.821932228 C10.3730871,0.376475847 10.0148648,0.0152718097 9.57294806,0.0152718097 L0.83571026,0.0152718097 Z" id="path-16"></path>
        <linearGradient x1="26.6629675%" y1="-10.1321467%" x2="91.499387%" y2="83.7182842%" id="linearGradient-18">
            <stop stop-color="#333333" offset="0%"></stop>
            <stop stop-color="#000000" offset="100%"></stop>
        </linearGradient>
        <path d="M9.11578652,0.0151679198 C8.67821629,0.0151679198 8.32344101,0.373914787 8.32344101,0.816340852 L8.32344101,7.21694737 C8.32344101,9.0041203 7.23851124,10.0835138 5.59365169,10.0835138 C3.94875,10.0835138 2.79383427,9.0041203 2.79383427,7.21694737 L2.79383427,0.816340852 C2.79383427,0.373914787 2.43905899,0.0151679198 2.00148876,0.0151679198 L0.82133427,0.0151679198 C0.383764045,0.0151679198 0.0290308989,0.373914787 0.0290308989,0.816340852 L0.0290308989,7.21694737 C0.0290308989,10.4904486 2.19884831,12.5253784 5.59365169,12.5253784 C8.97092697,12.5253784 11.0882444,10.4904486 11.0882444,7.21694737 L11.0882444,0.816340852 C11.0882444,0.373914787 10.7335534,0.0151679198 10.2959831,0.0151679198 L9.11578652,0.0151679198 Z" id="path-19"></path>
        <linearGradient x1="20.5854227%" y1="-7.91856649%" x2="84.4223159%" y2="90.9200679%" id="linearGradient-21">
            <stop stop-color="#333333" offset="0%"></stop>
            <stop stop-color="#000000" offset="100%"></stop>
        </linearGradient>
        <path d="M0.585737201,3.64473613 C0.585737201,7.98871061 7.31489502,6.6399596 7.31489502,8.95209817 C7.31489502,9.70527982 6.61130666,10.1256917 5.4386594,10.1256917 C4.34463749,10.1256917 2.91139711,9.64340741 1.71477128,8.85235159 C1.30470312,8.58124331 0.741988811,8.72898635 0.524313855,9.16179798 L0.120370645,9.96478965 C-0.0552983875,10.3140925 0.054125523,10.7374988 0.382223497,10.9601467 C1.76364064,11.8975538 3.58314437,12.4903395 5.40260467,12.4903395 C8.19888731,12.4903395 10.3457071,11.1941822 10.3457071,8.79448591 C10.3637779,4.3803725 3.63457665,5.64156583 3.63457665,3.38202091 C3.63457665,2.71643913 4.28403949,2.38362715 5.2402281,2.38362715 C6.06974736,2.38362715 7.28857073,2.71428814 8.43715256,3.25928832 C8.84878454,3.45456388 9.34516685,3.28598582 9.53851573,2.88278185 L9.95866184,2.00678327 C10.1436703,1.62099805 9.98311824,1.1606454 9.59281501,0.967014708 C8.41347807,0.381905015 6.94405265,0.0189370902 5.47471412,0.0189370902 C2.55215307,0.0189370902 0.585737201,1.42019741 0.585737201,3.64473613" id="path-22"></path>
        <linearGradient x1="19.2145568%" y1="7.19894791%" x2="82.0359897%" y2="94.5234572%" id="linearGradient-24">
            <stop stop-color="#333333" offset="0%"></stop>
            <stop stop-color="#000000" offset="100%"></stop>
        </linearGradient>
        <polygon id="path-25" points="0 0.0112 16.2818071 0.0112 16.2818071 28 0 28"></polygon>
        <path d="M14.3638824,0.0112 C14.1382041,0.0119943262 13.9072012,0.0505191489 13.6790949,0.132334752 L0.00979728342,5.03424113 L0.00979728342,28 L15.0592766,22.6031489 C15.8017403,22.3368908 16.2916044,21.6718411 16.2916044,20.9302184 L16.2916044,1.80530496 C16.2916044,0.780187234 15.392725,0.0149333333 14.3785357,0.0112 L14.3638824,0.0112 Z" id="path-27"></path>
        <linearGradient x1="-6.27937825%" y1="21.3524114%" x2="98.5218956%" y2="78.1952775%" id="linearGradient-29">
            <stop stop-color="#38B549" offset="0%"></stop>
            <stop stop-color="#009144" offset="100%"></stop>
        </linearGradient>
    </defs>
    <g id="Atomic" stroke="none" stroke-width="1" fill="none" fill-rule="evenodd">
        <g id="Header-Movil" transform="translate(-94.000000, -9.000000)">
            <g id="Logo" transform="translate(94.000000, 9.000000)">
                <g id="Group-31">
                    <g id="Group-3" transform="translate(36.337079, 8.105263)">
                        <mask id="mask-2" fill="white">
                            <use xlink:href="#path-1"></use>
                        </mask>
                        <g id="Clip-2"></g>
                        <path d="M5.43800202,0.0152718097 C5.12329573,0.0152718097 4.83855146,0.205954939 4.71319843,0.500623648 L0.0940883146,11.3584084 C-0.132538876,11.8911629 0.249949663,12.4864632 0.81889191,12.4864632 L1.9261,12.4864632 C2.2481182,12.4864632 2.53794719,12.286943 2.65867775,11.9821932 L3.41878022,10.0634791 L9.07328202,10.0634791 L9.83338449,11.9821932 C9.95411506,12.286943 10.243944,12.4864632 10.5659622,12.4864632 L11.7857485,12.4864632 C12.3526317,12.4864632 12.7351202,11.8950667 12.5124431,11.3628699 L7.96930966,0.505127974 C7.84500719,0.208014059 7.55908629,0.0152718097 7.24257303,0.0152718097 L5.43800202,0.0152718097 Z M6.26344944,2.95488068 L8.18320404,7.80084895 L4.32625551,7.80084895 L6.26344944,2.95488068 Z" id="Fill-1" fill="url(#linearGradient-3)" mask="url(#mask-2)"></path>
                    </g>
                    <g id="Group-6" transform="translate(50.426966, 8.105263)">
                        <mask id="mask-5" fill="white">
                            <use xlink:href="#path-4"></use>
                        </mask>
                        <g id="Clip-5"></g>
                        <path d="M0.81625506,0.0152718097 C0.371375492,0.0152718097 0.0107514704,0.376475847 0.0107514704,0.821932228 L0.0107514704,11.6797599 C0.0107514704,12.1252592 0.371375492,12.4864632 0.81625506,12.4864632 L5.18752022,12.4864632 C9.11896029,12.4864632 11.84071,9.9209708 11.84071,6.25088897 C11.84071,2.56296143 9.15455579,0.0152718097 5.2942639,0.0152718097 L0.81625506,0.0152718097 Z M2.82151138,2.38480461 L5.24084923,2.38480461 C7.3756372,2.38480461 8.97666394,3.97041312 8.97666394,6.26869178 C8.97666394,8.54916763 7.44674255,10.1168875 5.36541208,10.1168875 L2.82151138,10.1168875 L2.82151138,2.38480461 Z" id="Fill-4" fill="url(#linearGradient-6)" mask="url(#mask-5)"></path>
                    </g>
                    <g id="Group-9" transform="translate(61.550562, 8.105263)">
                        <mask id="mask-8" fill="white">
                            <use xlink:href="#path-7"></use>
                        </mask>
                        <g id="Clip-8"></g>
                        <path d="M9.92957817,0.0152718097 C9.59451429,0.0152718097 9.29521541,0.227489906 9.18067416,0.546310382 L5.992461,9.42210598 L2.82128283,0.547554434 C2.70712295,0.228133381 2.40752745,0.0152718097 2.07195506,0.0152718097 L0.808484109,0.0152718097 C0.246795506,0.0152718097 -0.138568218,0.58775018 0.0667839486,1.11690123 L4.28035955,11.9747289 C4.40015538,12.2834683 4.69441156,12.4864632 5.02201734,12.4864632 L6.80666581,12.4864632 C7.1332122,12.4864632 7.42670562,12.2847123 7.54722183,11.9774744 L11.806775,1.11973252 C12.0145849,0.590109589 11.6290941,0.0152718097 11.0661766,0.0152718097 L9.92957817,0.0152718097 Z" id="Fill-7" fill="url(#linearGradient-9)" mask="url(#mask-8)"></path>
                    </g>
                    <g id="Group-12" transform="translate(74.898876, 8.105263)">
                        <mask id="mask-11" fill="white">
                            <use xlink:href="#path-10"></use>
                        </mask>
                        <g id="Clip-11"></g>
                        <path d="M0.833283077,0.0152718097 C0.392243132,0.0152718097 0.0346546552,0.376475847 0.0346546552,0.821932228 L0.0346546552,11.6797599 C0.0346546552,12.1252592 0.392243132,12.4864632 0.833283077,12.4864632 L8.83094897,12.4864632 C9.27198891,12.4864632 9.62953492,12.1252592 9.62953492,11.6797599 L9.62953492,10.9592394 C9.62953492,10.5136972 9.27198891,10.1525789 8.83094897,10.1525789 L2.82142405,10.1525789 L2.82142405,7.3910411 L7.98437311,7.3910411 C8.42541306,7.3910411 8.78295907,7.02992286 8.78295907,6.58442358 L8.78295907,5.86386013 C8.78295907,5.41836085 8.42541306,5.05719971 7.98437311,5.05719971 L2.82142405,5.05719971 L2.82142405,2.34915609 L8.63690838,2.34915609 C9.07794832,2.34915609 9.4355368,1.98799495 9.4355368,1.54253857 L9.4355368,0.821932228 C9.4355368,0.376475847 9.07794832,0.0152718097 8.63690838,0.0152718097 L0.833283077,0.0152718097 Z" id="Fill-10" fill="url(#linearGradient-12)" mask="url(#mask-11)"></path>
                    </g>
                    <g id="Group-15" transform="translate(86.022472, 8.105263)">
                        <mask id="mask-14" fill="white">
                            <use xlink:href="#path-13"></use>
                        </mask>
                        <g id="Clip-14"></g>
                        <path d="M9.27176966,0.0152718097 C8.8341573,0.0152718097 8.47942416,0.376475847 8.47942416,0.821932228 L8.47942416,8.0324142 L2.7676264,0.335636626 C2.61783708,0.133885725 2.38382022,0.0152718097 2.13543539,0.0152718097 L0.802289326,0.0152718097 C0.364719101,0.0152718097 0.0100280899,0.376475847 0.0100280899,0.821932228 L0.0100280899,11.6797599 C0.0100280899,12.1252592 0.364719101,12.4864632 0.802289326,12.4864632 L1.86,12.4864632 C2.29757022,12.4864632 2.65234551,12.1252592 2.65234551,11.6797599 L2.65234551,4.48708075 L8.58442416,12.4864632 L10.3119522,12.4864632 C10.7495646,12.4864632 11.1042978,12.1252592 11.1042978,11.6797599 L11.1042978,0.821932228 C11.1042978,0.376475847 10.7495646,0.0152718097 10.3119522,0.0152718097 L9.27176966,0.0152718097 Z" id="Fill-13" fill="url(#linearGradient-15)" mask="url(#mask-14)"></path>
                    </g>
                    <g id="Group-18" transform="translate(97.887640, 8.105263)">
                        <mask id="mask-17" fill="white">
                            <use xlink:href="#path-16"></use>
                        </mask>
                        <g id="Clip-17"></g>
                        <path d="M0.83571026,0.0152718097 C0.393793516,0.0152718097 0.0355711917,0.376475847 0.0355711917,0.821932228 L0.0355711917,1.59590411 C0.0355711917,2.04144629 0.393793516,2.40260743 0.83571026,2.40260743 L3.79947983,2.40260743 L3.79947983,11.6797599 C3.79947983,12.1252592 4.15770216,12.4864632 4.5996189,12.4864632 L5.79138147,12.4864632 C6.23329821,12.4864632 6.59147799,12.1252592 6.59147799,11.6797599 L6.59147799,2.40260743 L9.57294806,2.40260743 C10.0148648,2.40260743 10.3730871,2.04144629 10.3730871,1.59590411 L10.3730871,0.821932228 C10.3730871,0.376475847 10.0148648,0.0152718097 9.57294806,0.0152718097 L0.83571026,0.0152718097 Z" id="Fill-16" fill="url(#linearGradient-18)" mask="url(#mask-17)"></path>
                    </g>
                    <g id="Group-21" transform="translate(109.011236, 8.105263)">
                        <mask id="mask-20" fill="white">
                            <use xlink:href="#path-19"></use>
                        </mask>
                        <g id="Clip-20"></g>
                        <path d="M9.11578652,0.0151679198 C8.67821629,0.0151679198 8.32344101,0.373914787 8.32344101,0.816340852 L8.32344101,7.21694737 C8.32344101,9.0041203 7.23851124,10.0835138 5.59365169,10.0835138 C3.94875,10.0835138 2.79383427,9.0041203 2.79383427,7.21694737 L2.79383427,0.816340852 C2.79383427,0.373914787 2.43905899,0.0151679198 2.00148876,0.0151679198 L0.82133427,0.0151679198 C0.383764045,0.0151679198 0.0290308989,0.373914787 0.0290308989,0.816340852 L0.0290308989,7.21694737 C0.0290308989,10.4904486 2.19884831,12.5253784 5.59365169,12.5253784 C8.97092697,12.5253784 11.0882444,10.4904486 11.0882444,7.21694737 L11.0882444,0.816340852 C11.0882444,0.373914787 10.7335534,0.0151679198 10.2959831,0.0151679198 L9.11578652,0.0151679198 Z" id="Fill-19" fill="url(#linearGradient-21)" mask="url(#mask-20)"></path>
                    </g>
                    <g id="Group-24" transform="translate(121.617978, 8.105263)">
                        <mask id="mask-23" fill="white">
                            <use xlink:href="#path-22"></use>
                        </mask>
                        <g id="Clip-23"></g>
                        <path d="M0.585737201,3.64473613 C0.585737201,7.98871061 7.31489502,6.6399596 7.31489502,8.95209817 C7.31489502,9.70527982 6.61130666,10.1256917 5.4386594,10.1256917 C4.34463749,10.1256917 2.91139711,9.64340741 1.71477128,8.85235159 C1.30470312,8.58124331 0.741988811,8.72898635 0.524313855,9.16179798 L0.120370645,9.96478965 C-0.0552983875,10.3140925 0.054125523,10.7374988 0.382223497,10.9601467 C1.76364064,11.8975538 3.58314437,12.4903395 5.40260467,12.4903395 C8.19888731,12.4903395 10.3457071,11.1941822 10.3457071,8.79448591 C10.3637779,4.3803725 3.63457665,5.64156583 3.63457665,3.38202091 C3.63457665,2.71643913 4.28403949,2.38362715 5.2402281,2.38362715 C6.06974736,2.38362715 7.28857073,2.71428814 8.43715256,3.25928832 C8.84878454,3.45456388 9.34516685,3.28598582 9.53851573,2.88278185 L9.95866184,2.00678327 C10.1436703,1.62099805 9.98311824,1.1606454 9.59281501,0.967014708 C8.41347807,0.381905015 6.94405265,0.0189370902 5.47471412,0.0189370902 C2.55215307,0.0189370902 0.585737201,1.42019741 0.585737201,3.64473613" id="Fill-22" fill="url(#linearGradient-24)" mask="url(#mask-23)"></path>
                    </g>
                    <g id="Group-27">
                        <mask id="mask-26" fill="white">
                            <use xlink:href="#path-25"></use>
                        </mask>
                        <g id="Clip-26"></g>
                        <path d="M16.2818071,28.0000079 L1.23232787,22.6031569 C0.489906768,22.3368987 0,21.6718491 0,20.9301867 L0,1.80527319 C0,0.547378156 1.35334562,-0.319231773 2.61255212,0.132342695 L16.2818071,5.03420936 L16.2818071,28.0000079 Z" id="Fill-25" fill="#6DC658" mask="url(#mask-26)"></path>
                    </g>
                    <g id="Group-30" transform="translate(15.573034, 0.000000)">
                        <mask id="mask-28" fill="white">
                            <use xlink:href="#path-27"></use>
                        </mask>
                        <g id="Clip-29"></g>
                        <path d="M14.3638824,0.0112 C14.1382041,0.0119943262 13.9072012,0.0505191489 13.6790949,0.132334752 L0.00979728342,5.03424113 L0.00979728342,28 L15.0592766,22.6031489 C15.8017403,22.3368908 16.2916044,21.6718411 16.2916044,20.9302184 L16.2916044,1.80530496 C16.2916044,0.780187234 15.392725,0.0149333333 14.3785357,0.0112 L14.3638824,0.0112 Z" id="Fill-28" fill="url(#linearGradient-29)" mask="url(#mask-28)"></path>
                    </g>
                </g>
            </g>
        </g>
    </g>
</svg>